<?xml version="1.0" encoding="UTF-8"?><svg id="Layer_1" xmlns="http://www.w3.org/2000/svg" xmlns:xlink="http://www.w3.org/1999/xlink" viewBox="0 0 1920.5 1080"><defs><style>.cls-1{fill:url(#linear-gradient);}.cls-2{fill:#fafbfb;}.cls-3{fill:#edf3f2;}.cls-4{fill:#e2ebe9;}</style><linearGradient id="linear-gradient" x1="965.58" y1="986.34" x2="954.59" y2="66.33" gradientTransform="matrix(1, 0, 0, 1, 0, 0)" gradientUnits="userSpaceOnUse"><stop offset="0" stop-color="#fff"/><stop offset=".49" stop-color="#c5d6d2"/><stop offset=".49" stop-color="#c4d5d1"/><stop offset=".78" stop-color="#9dbab4"/><stop offset=".93" stop-color="#8eb0a9"/></linearGradient></defs><rect class="cls-1" width="1920.5" height="1080"/><g><path class="cls-2" d="M1914.55,781.51c-238.37,182.29-558.97,160.84-954.72-46.84,355.73,85.48,683.44,96.91,955.23-39.42l-.52,86.26Z"/><path class="cls-3" d="M3.4,712.67l.2,139.72c26.75-43.41,55.89-79.08,88.16-104.6L3.4,712.67Z"/><path class="cls-2" d="M982.84,741c-290.94-99.86-593.23-99.79-908.3,12.92,342.59,114.76,645.36,110.45,908.3-12.92Z"/><path class="cls-4" d="M2.28,713.4c-.29,3.44-.19,6.86-.06,10.3,.06,1.73,.26,3.51,.2,5.24-.03,.9-.53,2.44-.38,3.08,.13,.59,.16,1.15,.11,1.68l79.03,23.69c254.52-96.74,532.53-109.2,833.78-38.22-279.98-102.83-580.52-120.1-912.67-5.77Z"/><path class="cls-4" d="M1920,623.17v74.18c-266.6,140.67-596.14,128.4-959.52,33.88,411.74,16.26,750.91-8.76,959.52-108.05Z"/></g></svg>